HIERARCHY
ROOT Hips
{
  OFFSET 0.000000 0.000000 0.000000
  CHANNELS 6 Xposition Yposition Zposition Zrotation Xrotation Yrotation
  JOINT Spine
  {
    OFFSET 0.000000 10.000000 0.000000
    CHANNELS 3 Zrotation Xrotation Yrotation
    JOINT Spine1
    {
      OFFSET 0.000000 10.000000 0.000000
      CHANNELS 3 Zrotation Xrotation Yrotation
      JOINT Neck
      {
        OFFSET 0.000000 10.000000 0.000000
        CHANNELS 3 Zrotation Xrotation Yrotation
        JOINT Head
        {
          OFFSET 0.000000 10.000000 0.000000
          CHANNELS 3 Zrotation Xrotation Yrotation
          End Site
          {
            OFFSET 0.0 -5.0 0.0
          }
        }
      }
      JOINT LeftShoulder
      {
        OFFSET -5.000000 0.000000 0.000000
        CHANNELS 3 Zrotation Xrotation Yrotation
        JOINT LeftArm
        {
          OFFSET -10.000000 0.000000 0.000000
          CHANNELS 3 Zrotation Xrotation Yrotation
          JOINT LeftForeArm
          {
            OFFSET -10.000000 0.000000 0.000000
            CHANNELS 3 Zrotation Xrotation Yrotation
            JOINT LeftHand
            {
              OFFSET -5.000000 0.000000 0.000000
              CHANNELS 3 Zrotation Xrotation Yrotation
              End Site
              {
                OFFSET 0.0 -5.0 0.0
              }
            }
          }
        }
      }
      JOINT RightShoulder
      {
        OFFSET 5.000000 0.000000 0.000000
        CHANNELS 3 Zrotation Xrotation Yrotation
        JOINT RightArm
        {
          OFFSET 10.000000 0.000000 0.000000
          CHANNELS 3 Zrotation Xrotation Yrotation
          JOINT RightForeArm
          {
            OFFSET 10.000000 0.000000 0.000000
            CHANNELS 3 Zrotation Xrotation Yrotation
            JOINT RightHand
            {
              OFFSET 5.000000 0.000000 0.000000
              CHANNELS 3 Zrotation Xrotation Yrotation
              End Site
              {
                OFFSET 0.0 -5.0 0.0
              }
            }
          }
        }
      }
    }
  }
  JOINT LeftUpLeg
  {
    OFFSET -5.000000 -5.000000 0.000000
    CHANNELS 3 Zrotation Xrotation Yrotation
    JOINT LeftLeg
    {
      OFFSET 0.000000 -20.000000 0.000000
      CHANNELS 3 Zrotation Xrotation Yrotation
      JOINT LeftFoot
      {
        OFFSET 0.000000 -20.000000 0.000000
        CHANNELS 3 Zrotation Xrotation Yrotation
        End Site
        {
          OFFSET 0.0 -5.0 0.0
        }
      }
    }
  }
  JOINT RightUpLeg
  {
    OFFSET 5.000000 -5.000000 0.000000
    CHANNELS 3 Zrotation Xrotation Yrotation
    JOINT RightLeg
    {
      OFFSET 0.000000 -20.000000 0.000000
      CHANNELS 3 Zrotation Xrotation Yrotation
      JOINT RightFoot
      {
        OFFSET 0.000000 -20.000000 0.000000
        CHANNELS 3 Zrotation Xrotation Yrotation
        End Site
        {
          OFFSET 0.0 -5.0 0.0
        }
      }
    }
  }
}
MOTION
Frames: 15
Frame Time: 0.03333333333333333
28.073394 -7.599664 -0.032098 0.000000 0.000000 0.000000 0.000000 -54.444478 178.224700 0.000000 -54.444478 178.224700 0.000000 -5.301944 -177.680410 0.000000 -5.301944 -177.680410 0.000000 3.318903 150.038927 0.000000 35.764268 149.154648 0.000000 22.367398 -177.418067 0.000000 13.016303 -159.824319 0.000000 -3.318903 -29.961073 0.000000 40.284616 -3.935571 0.000000 67.201912 -141.440538 0.000000 23.272203 -167.824117 0.000000 43.547477 157.841057 0.000000 56.490404 0.411019 0.000000 48.048319 -1.413842 0.000000 0.826064 -161.214859 0.000000 23.872254 -166.652833 0.000000 76.931925 -91.419553
27.876348 -6.112833 -0.032899 0.000000 0.000000 0.000000 0.000000 -55.346589 178.059368 0.000000 -55.346589 178.059368 0.000000 -5.259295 -177.646910 0.000000 -5.259295 -177.646910 0.000000 3.269417 150.490976 0.000000 34.846295 150.097321 0.000000 20.977790 -177.635689 0.000000 12.225798 -161.130104 0.000000 -3.269417 -29.509024 0.000000 39.814102 -4.402037 0.000000 63.880806 -146.317776 0.000000 21.545870 -168.621119 0.000000 43.568486 158.275579 0.000000 57.612954 0.520662 0.000000 49.528556 -1.043332 0.000000 0.972895 -162.227578 0.000000 24.955360 -166.362762 0.000000 73.225554 -47.354754
27.112069 -4.389296 -0.034846 0.000000 0.000000 0.000000 0.000000 -56.630949 177.526743 0.000000 -56.630949 177.526743 0.000000 -5.386745 -177.711116 0.000000 -5.386745 -177.711116 0.000000 3.083278 149.449719 0.000000 34.964819 149.488213 0.000000 20.389365 -177.811056 0.000000 12.021824 -161.832455 0.000000 -3.083278 -30.550281 0.000000 41.303493 -6.095685 0.000000 57.824740 -153.553568 0.000000 19.685040 -169.875015 0.000000 44.108582 157.778974 0.000000 59.769813 1.050572 0.000000 52.153119 -0.803405 0.000000 1.749803 -162.906520 0.000000 25.173692 -166.977089 0.000000 73.070393 -43.068696
26.534536 -3.240860 -0.045064 0.000000 0.000000 0.000000 0.000000 -61.565858 176.804992 0.000000 -61.565858 176.804992 0.000000 -5.370757 -177.714503 0.000000 -5.370757 -177.714503 0.000000 3.054327 144.433291 0.000000 38.040417 144.531459 0.000000 22.254989 -178.016388 0.000000 12.482165 -161.681408 0.000000 -3.054327 -35.566709 0.000000 46.296046 -9.688188 0.000000 50.158640 -158.732624 0.000000 18.570748 -170.437556 0.000000 46.303604 155.763396 0.000000 62.129319 1.491157 0.000000 54.692330 -0.576982 0.000000 3.107238 -163.955076 0.000000 26.705564 -167.438430 0.000000 73.420183 -34.177805
25.359814 -2.672853 -0.052208 0.000000 0.000000 0.000000 0.000000 -58.834396 176.775036 0.000000 -58.834396 176.775036 0.000000 -5.161925 -177.807504 0.000000 -5.161925 -177.807504 0.000000 3.239560 141.159204 0.000000 44.487619 131.514665 0.000000 26.118024 -178.640894 0.000000 13.339283 -161.243661 0.000000 -3.239560 -38.840796 0.000000 45.888880 -11.333501 0.000000 52.982338 -155.646688 0.000000 19.742656 -170.168566 0.000000 52.962983 147.424135 0.000000 54.157651 1.546736 0.000000 45.741150 -0.309690 0.000000 4.077658 -165.657995 0.000000 25.310372 -170.059098 0.000000 80.816146 -133.373224
23.975987 -2.068498 -0.055766 0.000000 0.000000 0.000000 0.000000 -69.604308 174.219292 0.000000 -69.604308 174.219292 0.000000 -5.158491 -177.930330 0.000000 -5.158491 -177.930330 0.000000 3.333568 133.337665 0.000000 47.673614 121.117013 0.000000 27.486104 -179.863276 0.000000 13.732580 -162.297266 0.000000 -3.333568 -46.662335 0.000000 54.474951 -17.128618 0.000000 49.634298 -157.715904 0.000000 20.359551 -170.000385 0.000000 55.708897 141.030065 0.000000 54.367495 2.017175 0.000000 46.148243 -0.132241 0.000000 5.746431 -166.190942 0.000000 25.966700 -172.167680 0.000000 70.368002 -167.406282
22.771268 -1.777260 -0.057677 0.000000 0.000000 0.000000 0.000000 -64.312705 175.272224 0.000000 -64.312705 175.272224 0.000000 -5.094384 -178.052680 0.000000 -5.094384 -178.052680 0.000000 2.988742 133.638041 0.000000 51.514140 86.464422 0.000000 37.918600 179.051398 0.000000 16.927898 -160.090457 0.000000 -2.988742 -46.361959 0.000000 45.587750 -12.809475 0.000000 60.768855 -143.407546 0.000000 23.141809 -168.314637 0.000000 62.506445 120.312640 0.000000 44.835349 1.894468 0.000000 38.934686 0.041162 0.000000 7.004939 -167.148053 0.000000 24.549924 -174.933624 0.000000 49.436067 -174.267751
21.582298 -1.226928 -0.063938 0.000000 0.000000 0.000000 0.000000 -61.415533 176.105033 0.000000 -61.415533 176.105033 0.000000 -5.008641 -178.243432 0.000000 -5.008641 -178.243432 0.000000 2.997357 126.845548 0.000000 47.244180 62.222998 0.000000 45.128435 176.276900 0.000000 18.503075 -161.159532 0.000000 -2.997357 -53.154452 0.000000 41.914880 -11.810721 0.000000 63.560808 -134.546046 0.000000 23.333971 -167.812686 0.000000 59.295659 127.443454 0.000000 50.071177 2.705967 0.000000 43.134157 0.416163 0.000000 11.468252 -165.595032 0.000000 38.293993 -174.482433 0.000000 87.230771 -163.431505
20.182625 -2.996120 -0.070098 0.000000 0.000000 0.000000 0.000000 -58.757398 176.800598 0.000000 -58.757398 176.800598 0.000000 -4.840971 -178.251839 0.000000 -4.840971 -178.251839 0.000000 2.883593 127.150270 0.000000 48.587455 108.445407 0.000000 31.617225 175.779898 0.000000 17.746420 -165.397115 0.000000 -2.883593 -52.849730 0.000000 45.957428 -13.523770 0.000000 55.879926 -148.176695 0.000000 21.108152 -169.167480 0.000000 61.913256 107.645222 0.000000 42.278841 2.491738 0.000000 36.500239 0.526115 0.000000 14.012729 -166.030460 0.000000 37.552248 -178.647897 0.000000 81.694226 174.227985
19.022795 -5.781999 -0.062092 0.000000 0.000000 0.000000 0.000000 -59.341586 177.588609 0.000000 -59.341586 177.588609 0.000000 -4.964129 -178.088436 0.000000 -4.964129 -178.088436 0.000000 2.556428 127.793866 0.000000 46.208085 114.046454 0.000000 29.159170 174.228658 0.000000 18.549747 -167.387706 0.000000 -2.556428 -52.206134 0.000000 43.851839 -12.352497 0.000000 56.971307 -145.803875 0.000000 20.857617 -169.569794 0.000000 56.699467 123.581691 0.000000 41.104108 3.207689 0.000000 30.918221 1.044094 0.000000 20.474407 -163.447544 0.000000 50.282760 177.183846 0.000000 84.173643 86.990366
18.264213 -9.544673 -0.057565 0.000000 0.000000 0.000000 0.000000 -52.670121 178.944778 0.000000 -52.670121 178.944778 0.000000 -5.258966 -177.818475 0.000000 -5.258966 -177.818475 0.000000 2.128706 124.987964 0.000000 45.557114 65.300268 0.000000 42.579812 167.799476 0.000000 21.145430 -169.086966 0.000000 -2.128706 -55.012036 0.000000 41.339158 -11.009639 0.000000 60.952149 -141.380055 0.000000 22.004338 -169.875460 0.000000 54.188795 125.113267 0.000000 34.746043 3.463340 0.000000 23.036102 1.487944 0.000000 32.576021 -157.146446 0.000000 72.232588 164.608984 0.000000 75.317227 37.977919
18.016516 -12.580147 -0.056529 0.000000 0.000000 0.000000 0.000000 -47.853881 179.849861 0.000000 -47.853881 179.849861 0.000000 -5.153740 -178.195025 0.000000 -5.153740 -178.195025 0.000000 1.380653 127.806160 0.000000 30.057121 31.764567 0.000000 72.504379 66.205481 0.000000 33.260435 -166.124747 0.000000 -1.380653 -52.193840 0.000000 29.630113 -7.384955 0.000000 61.577944 -38.511906 0.000000 34.077831 -164.602070 0.000000 46.153715 138.501808 0.000000 34.285720 4.177755 0.000000 20.464943 1.821415 0.000000 61.249076 -111.873082 0.000000 63.206403 12.645704 0.000000 54.667384 11.284259
18.099804 -16.234503 -0.056832 0.000000 0.000000 0.000000 0.000000 -50.909695 -179.301454 0.000000 -50.909695 -179.301454 0.000000 -5.417617 -178.320554 0.000000 -5.417617 -178.320554 0.000000 0.450774 127.829150 0.000000 23.642558 23.708349 0.000000 52.133715 25.518759 0.000000 43.706083 -164.985275 0.000000 -0.450774 -52.170850 0.000000 33.246827 -9.196834 0.000000 68.345202 -56.766612 0.000000 32.443191 -166.979039 0.000000 38.317418 145.903272 0.000000 33.461088 5.392839 0.000000 17.936826 2.550647 0.000000 60.172374 -123.049175 0.000000 68.521719 19.212297 0.000000 59.155797 12.309201
18.327599 -18.142104 -0.058268 0.000000 0.000000 0.000000 0.000000 -53.286701 -178.099583 0.000000 -53.286701 -178.099583 0.000000 -5.650579 -178.395185 0.000000 -5.650579 -178.395185 0.000000 -0.423163 126.195329 0.000000 20.716486 20.340833 0.000000 37.814174 17.182982 0.000000 67.150593 -155.790408 0.000000 0.423163 -53.804671 0.000000 34.927162 -9.598037 0.000000 60.385653 -34.523263 0.000000 44.817413 -160.603026 0.000000 31.627616 149.075885 0.000000 33.557326 6.715488 0.000000 17.804488 2.932009 0.000000 46.056062 -147.440485 0.000000 76.415661 31.146056 0.000000 52.877965 9.346594
18.647822 -18.606977 -0.062203 0.000000 0.000000 0.000000 0.000000 -55.203259 -177.151158 0.000000 -55.203259 -177.151158 0.000000 -6.021691 -178.680182 0.000000 -6.021691 -178.680182 0.000000 -1.494801 125.098682 0.000000 30.251022 30.256065 0.000000 50.238532 150.723519 0.000000 20.579016 -178.485188 0.000000 1.494801 -54.901318 0.000000 49.943880 -16.840034 0.000000 55.481685 -151.817031 0.000000 24.001798 -171.454574 0.000000 22.390604 155.373316 0.000000 33.816110 8.668230 0.000000 14.883212 2.136090 0.000000 32.300112 -159.488295 0.000000 73.884315 156.588903 0.000000 64.179270 13.180729
